<?xml version="1.0" encoding="UTF-8" standalone="no"?>
<svg
   version="1.1"
   width="16"
   height="16"
   viewBox="0 0 36 36"
   preserveAspectRatio="xMidYMid meet"
   id="svg16"
   sodipodi:docname="copy-to-clipboard.svg"
   inkscape:version="1.2.2 (b0a8486541, 2022-12-01)"
   xmlns:inkscape="http://www.inkscape.org/namespaces/inkscape"
   xmlns:sodipodi="http://sodipodi.sourceforge.net/DTD/sodipodi-0.dtd"
   xmlns="http://www.w3.org/2000/svg"
   xmlns:svg="http://www.w3.org/2000/svg">
  <defs
     id="defs20" />
  <sodipodi:namedview
     id="namedview18"
     pagecolor="#ffffff"
     bordercolor="#666666"
     borderopacity="1.0"
     inkscape:showpageshadow="2"
     inkscape:pageopacity="0.0"
     inkscape:pagecheckerboard="0"
     inkscape:deskcolor="#d1d1d1"
     showgrid="false"
     inkscape:zoom="32"
     inkscape:cx="2.3125"
     inkscape:cy="8.296875"
     inkscape:window-width="1920"
     inkscape:window-height="1026"
     inkscape:window-x="0"
     inkscape:window-y="30"
     inkscape:window-maximized="1"
     inkscape:current-layer="svg16" />
  <rect
     style="fill:#ffeeaa;stroke:#2aff00;stroke-width:0;stroke-opacity:0.996891"
     id="rect441"
     width="23.480705"
     height="26.079037"
     x="6.4099588"
     y="6.9692335" />
  <path
     d="M 29.29,5 21.164389,4.9876192 24.503829,7 H 29 V 32 H 7 V 7 L 11.297434,6.9956372 15.021318,4.996027 7,5 C 5.9614871,4.8497953 5.0251705,5.6409829 5,6.69 v 25.62 c 0.00551,0.938891 0.7711093,1.695539 1.71,1.69 h 22.58 c 0.938891,0.0055 1.704493,-0.751109 1.71,-1.69 V 6.69 C 30.994493,5.7511091 30.228891,4.9944609 29.29,5 Z"
     id="path2"
     style="fill:#ffcc00"
     sodipodi:nodetypes="ccccccccccccccccc" />
  <path
     d="m 26.145142,7.3041632 a 2.34,2.34 0 0 0 -2.33,-2.33 h -1.8 a 4,4 0 0 0 -7.75,0 h -1.79 a 2.34,2.34 0 0 0 -2.33,2.33 v 3.6699998 h 16 z m -2,1.67 h -12 v -1.67 a 0.33,0.33 0 0 1 0.33,-0.33 h 3.67 v -1 a 2,2 0 0 1 4,0 v 1 h 3.67 a 0.33,0.33 0 0 1 0.33,0.33 z"
     id="path4"
     style="fill:#b3b3b3" />
  <rect
     x="11"
     y="14"
     width="14"
     height="2"
     id="rect6"
     style="fill:#806600" />
  <rect
     x="11"
     y="18"
     width="14"
     height="2"
     id="rect8"
     style="fill:#806600" />
  <rect
     x="11"
     y="22"
     width="14"
     height="2"
     id="rect10"
     style="fill:#806600" />
  <rect
     x="11"
     y="26"
     width="14"
     height="2"
     id="rect12"
     style="fill:#806600" />
  <rect
     x="0"
     y="0"
     width="36"
     height="36"
     fill-opacity="0"
     id="rect14" />
</svg>
